<svg xmlns="http://www.w3.org/2000/svg" viewBox="0 0 1000 650" style="background-color: white;">
  <!-- Estilo para os post-its -->
  <style>
    .read-model { fill: #66cc66; }
    .actor { fill: #eeee77; }
    .command { fill: #99bbff; }
    .aggregate { fill: #eeee77; }
    .event { fill: #ff9966; }
    .policy { fill: #cc77cc; }
    .external-system { fill: #ffaacc; }
    .post-it { rx: 5; ry: 5; }
    .post-it-text { fill: #000000; font-family: Arial; font-size: 12px; text-anchor: middle; }
    .arrow { fill: none; stroke: #000000; stroke-width: 2; marker-end: url(#arrowhead); }
    .curve-arrow { fill: none; stroke: #000000; stroke-width: 2; marker-end: url(#arrowhead); stroke-dasharray: 5,3; }
  </style>
  
  <!-- Adicionar marcador para curvas Bezier -->
  <defs>
    <marker id="arrowhead" markerWidth="10" markerHeight="7" refX="9" refY="3.5" orient="auto">
      <polygon points="0 0, 10 3.5, 0 7" />
    </marker>
  </defs>

  <!-- Título do diagrama -->
  <text x="500" y="30" font-family="Arial" font-size="18" font-weight="bold" text-anchor="middle">Event Storming - Realização do Pedido e Pagamento</text>

  <!-- Fluxo 1 -->
  <g transform="translate(0, 50)">
    <!-- Read Model: ListaDeProdutos -->
    <rect class="read-model post-it" x="175" y="0" width="100" height="70" />
    <text class="post-it-text" x="225" y="40">Lista De Produtos</text>
    
    <!-- Seta do Read Model para o Comando -->
    <line class="arrow" x1="275" y1="35" x2="355" y2="35" />
    
    <!-- Comando: SelecionarProduto -->
    <rect class="command post-it" x="390" y="0" width="100" height="70" />
    <text class="post-it-text" x="440" y="40">Selecionar Produto</text>
    
    <!-- Ator: Cliente (vertical e colado ao comando) -->
    <rect class="actor post-it" x="355" y="0" width="35" height="70" />
    <text class="post-it-text" transform="translate(372, 40) rotate(-90)">Cliente</text>
    
    <!-- Agregado: Produto -->
    <rect class="aggregate post-it" x="560" y="0" width="100" height="70" />
    <text class="post-it-text" x="610" y="40">Produto</text>
    
    <!-- Evento: ProdutoSelecionado -->
    <rect class="event post-it" x="730" y="0" width="100" height="70" />
    <text class="post-it-text" x="780" y="30">Produto</text>
    <text class="post-it-text" x="780" y="50">Selecionado</text>
    
    <!-- Setas conectando os elementos -->
    <line class="arrow" x1="490" y1="35" x2="560" y2="35" />
    <line class="arrow" x1="660" y1="35" x2="730" y2="35" />
  </g>
  
  <!-- Seta curva do Fluxo 1 para o Fluxo 2 -->
  <path class="curve-arrow" d="M 780,111 C 820,130 350,130 390,150" />
  
  <!-- Fluxo 2 -->
  <g transform="translate(0, 150)">
    <!-- Ator: Cliente (vertical e colado ao comando) -->
    <rect class="actor post-it" x="355" y="0" width="35" height="70" />
    <text class="post-it-text" transform="translate(372, 40) rotate(-90)">Cliente</text>

    <!-- Comando: AdicionarItemAoPedido -->
    <rect class="command post-it" x="390" y="0" width="100" height="70" />
    <text class="post-it-text" x="440" y="30">Adicionar Produto</text>
    <text class="post-it-text" x="440" y="50">Ao Pedido</text>
    
    <!-- Evento: ItemAdicionadoAoPedido -->
    <rect class="event post-it" x="730" y="0" width="100" height="70" />
    <text class="post-it-text" x="780" y="30">Produto Adicionado</text>
    <text class="post-it-text" x="780" y="50">Ao Pedido</text>
    
    <!-- Setas conectando os elementos -->
    <line class="arrow" x1="490" y1="35" x2="560" y2="35" />
    <line class="arrow" x1="595" y1="35" x2="730" y2="35" />
  </g>
  
  <!-- Seta curva do Fluxo 2 para o Fluxo 3 -->
  <path class="curve-arrow" d="M 780,211 C 820,230 350,230 390,250" />
  
  <!-- Agregado: Pedido (vertical para fluxos 2 e 3) -->
  <g transform="translate(0, 150)">
    <rect class="aggregate post-it" x="560" y="0" width="35" height="170" />
    <text class="post-it-text" transform="translate(577, 85) rotate(-90)">Pedido</text>
  </g>
  
  <!-- Fluxo 3 -->
  <g transform="translate(0, 250)">
    <!-- Read Model: Produtos Do Pedido -->
    <rect class="read-model post-it" x="175" y="0" width="100" height="70" />
    <text class="post-it-text" x="225" y="30">Produtos</text>
    <text class="post-it-text" x="225" y="50">Do Pedido</text>
    
    <!-- Seta do Read Model para o Comando -->
    <line class="arrow" x1="275" y1="35" x2="355" y2="35" />

    <!-- Ator: Cliente (vertical e colado ao comando) -->
    <rect class="actor post-it" x="355" y="0" width="35" height="70" />
    <text class="post-it-text" transform="translate(372, 40) rotate(-90)">Cliente</text>

    <!-- Comando: ConfirmarPedido -->
    <rect class="command post-it" x="390" y="0" width="100" height="70" />
    <text class="post-it-text" x="440" y="40">Confirmar Pedido</text>
    
    <!-- Evento: PedidoConfirmado -->
    <rect class="event post-it" x="730" y="0" width="100" height="70" />
    <text class="post-it-text" x="780" y="30">Pedido</text>
    <text class="post-it-text" x="780" y="50">Confirmado</text>
    
    <!-- Política: QuandoPedidoConfirmadoEntãoGerarPagamento -->
    <rect class="policy post-it" x="900" y="0" width="100" height="70" />
    <text class="post-it-text" x="950" y="25">Quando Pedido</text>
    <text class="post-it-text" x="950" y="40">Confirmado Então</text>
    <text class="post-it-text" x="950" y="55">Gerar Pagamento</text>
    
    <!-- Setas conectando os elementos -->
    <line class="arrow" x1="490" y1="35" x2="560" y2="35" />
    <line class="arrow" x1="595" y1="35" x2="730" y2="35" />
    <line class="arrow" x1="830" y1="35" x2="900" y2="35" />
  </g>

  <!-- Linha divisória entre fluxos 3 e 4 -->
  <line x1="50" y1="335" x2="950" y2="335" stroke="#000000" stroke-width="1" />
  
  <!-- Seta curva do Fluxo 3 para o Fluxo 4 -->
  <path class="curve-arrow" d="M 950,311 C 970,330 350,330 390,350" />
  
  <!-- Fluxo 4 -->
  <g transform="translate(0, 350)">
    <!-- Sistema Externo: Merc Pago (colado ao comando) -->
    <rect class="external-system post-it" x="355" y="0" width="35" height="70" />
    <text class="post-it-text" transform="translate(372, 40) rotate(-90)">Merc Pago</text>
    
    <!-- Comando: GerarQRCodePagamento -->
    <rect class="command post-it" x="390" y="0" width="100" height="70" />
    <text class="post-it-text" x="440" y="30">Gerar QRCode</text>
    <text class="post-it-text" x="440" y="50">Pagamento</text>
    
    <!-- Evento: QRCodeGerado -->
    <rect class="event post-it" x="730" y="0" width="100" height="70" />
    <text class="post-it-text" x="780" y="30">QRCode</text>
    <text class="post-it-text" x="780" y="50">Gerado</text>
    
    <!-- Setas conectando os elementos -->
    <line class ="arrow" x1="490" y1="35" x2="560" y2="35" />
    <line class="arrow" x1="595" y1="35" x2="730" y2="35" />
  </g>
  
  <!-- Seta curva do Fluxo 4 para o Fluxo 5 -->
  <path class="curve-arrow" d="M 780,411 C 820,430 350,430 390,450" />
  
  <!-- Agregado: Pagamento (vertical para fluxos 4 e 5) -->
  <g transform="translate(0, 350)">
    <rect class="aggregate post-it" x="560" y="0" width="35" height="170" />
    <text class="post-it-text" transform="translate(577, 85) rotate(-90)">Pagamento</text>
  </g>
  
  <!-- Fluxo 5 -->
  <g transform="translate(0, 450)">
    <!-- Read Model: QRCodePagamento -->
    <rect class="read-model post-it" x="175" y="0" width="100" height="70" />
    <text class="post-it-text" x="225" y="30">QRCode</text>
    <text class="post-it-text" x="225" y="50">Pagamento</text>
    
    <!-- Seta do Read Model para o Comando -->
    <line class="arrow" x1="275" y1="35" x2="355" y2="35" />
    
    <!-- Comando: RealizarPagamento -->
    <rect class="command post-it" x="390" y="0" width="100" height="70" />
    <text class="post-it-text" x="440" y="30">Realizar</text>
    <text class="post-it-text" x="440" y="50">Pagamento</text>
    
    <!-- Ator: Cliente (vertical e colado ao comando) -->
    <rect class="actor post-it" x="355" y="0" width="35" height="70" />
    <text class="post-it-text" transform="translate(372, 40) rotate(-90)">Cliente</text>
    
    <!-- Evento: PagamentoRealizado -->
    <rect class="event post-it" x="730" y="0" width="100" height="70" />
    <text class="post-it-text" x="780" y="30">Pagamento</text>
    <text class="post-it-text" x="780" y="50">Realizado</text>
    
    <!-- Política: QuandoPagamentoRealizadoEntãoEnviarPedidoParaCozinha -->
    <rect class="policy post-it" x="900" y="0" width="100" height="70" />
    <text class="post-it-text" x="950" y="20">Quando Pagamento</text>
    <text class="post-it-text" x="950" y="35">Realizado Então</text>
    <text class="post-it-text" x="950" y="50">Enviar Pedido</text>
    <text class="post-it-text" x="950" y="65">Para Cozinha</text>
    
    <!-- Setas conectando os elementos -->
    <line class="arrow" x1="490" y1="35" x2="560" y2="35" />
    <line class="arrow" x1="595" y1="35" x2="730" y2="35" />
    <line class="arrow" x1="830" y1="35" x2="900" y2="35" />
  </g>
  
  <!-- Linha divisória entre fluxos 5 e 6 -->
  <line x1="50" y1="535" x2="950" y2="535" stroke="#000000" stroke-width="1" />
  
  <!-- Seta curva do Fluxo 5 para o Fluxo 6 -->
  <path class="curve-arrow" d="M 950,511 C 970,530 350,530 390,550" />
  
  <!-- Fluxo 6 -->
  <g transform="translate(0, 550)">
    <!-- Comando: EnviarPedido -->
    <rect class="command post-it" x="390" y="0" width="100" height="70" />
    <text class="post-it-text" x="440" y="40">Enviar Pedido</text>
    
    <!-- Agregado: Pedido (horizontal) -->
    <rect class="aggregate post-it" x="560" y="0" width="100" height="70" />
    <text class="post-it-text" x="610" y="40">Pedido</text>
    
    <!-- Evento: PedidoEnviado -->
    <rect class="event post-it" x="730" y="0" width="100" height="70" />
    <text class="post-it-text" x="780" y="30">Pedido</text>
    <text class="post-it-text" x="780" y="50">Enviado</text>

    <!-- Política: QuandoPedidoRecebidoEntãoIniciarPreparacao -->
    <rect class="policy post-it" x="900" y="0" width="100" height="70" />
    <text class="post-it-text" x="950" y="25">Quando Pedido</text>
    <text class="post-it-text" x="950" y="40">Recebido Então</text>
    <text class="post-it-text" x="950" y="55">Iniciar Preparação</text>
    
    <!-- Setas conectando os elementos -->
    <line class="arrow" x1="490" y1="35" x2="560" y2="35" />
    <line class="arrow" x1="660" y1="35" x2="730" y2="35" />
    <line class="arrow" x1="830" y1="35" x2="900" y2="35" />
  </g>
</svg>