<svg xmlns="http://www.w3.org/2000/svg" viewBox="0 0 1000 870" style="background-color: white;">
  <!-- Estilo para os post-its -->
  <style>
    .read-model { fill: #66cc66; }
    .actor { fill: #eeee77; }
    .command { fill: #99bbff; }
    .aggregate { fill: #eeee77; }
    .event { fill: #ff9966; }
    .policy { fill: #cc77cc; }
    .external-system { fill: #ffaacc; }
    .post-it { rx: 5; ry: 5; }
    .post-it-text { fill: #000000; font-family: Arial; font-size: 12px; text-anchor: middle; }
    .arrow { fill: none; stroke: #000000; stroke-width: 2; marker-end: url(#arrowhead); }
    .curve-arrow { fill: none; stroke: #000000; stroke-width: 2; marker-end: url(#arrowhead); stroke-dasharray: 5,3; }
  </style>

  <!-- Adicionar marcador para curvas Bezier -->
  <defs>
    <marker id="arrowhead" markerWidth="10" markerHeight="7" refX="9" refY="3.5" orient="auto">
      <polygon points="0 0, 10 3.5, 0 7" />
    </marker>
  </defs>

  <!-- Título do diagrama -->
  <text x="500" y="30" font-family="Arial" font-size="18" font-weight="bold" text-anchor="middle">Event Storming - Preparação e Entrega do Pedido</text>

  <!-- Linha divisória após PreparacaoIniciada (atrás do agregado) -->
  <line x1="50" y1="135" x2="520" y2="135" stroke="#000000" stroke-width="1.5" />
  <line x1="555" y1="135" x2="950" y2="135" stroke="#000000" stroke-width="1.5" />

  <!-- Seta curva do Fluxo 1 para o Fluxo 2 (atrás do agregado) -->
  <path class="curve-arrow" d="M 910,111 C 930,130 310,130 350,150" />

  <!-- Agregado: Pedido (vertical para fluxos 1 e 2) -->
  <g transform="translate(-40, 50)">
    <rect class="aggregate post-it" x="560" y="0" width="35" height="170" />
    <text class="post-it-text" transform="translate(577, 85) rotate(-90)">Pedido</text>
  </g>

  <!-- Fluxo 1 -->
  <g transform="translate(-40, 50)">
    <!-- Read Model: FilaDePedidos -->
    <rect class="read-model post-it" x="175" y="0" width="100" height="70" />
    <text class="post-it-text" x="225" y="40">Fila De Pedidos</text>

    <!-- Seta do Read Model para o Comando -->
    <line class="arrow" x1="275" y1="35" x2="355" y2="35" />

    <!-- Comando: IniciarPreparacao -->
    <rect class="command post-it" x="390" y="0" width="100" height="70" />
    <text class="post-it-text" x="440" y="30">Iniciar</text>
    <text class="post-it-text" x="440" y="50">Preparação</text>

    <!-- Ator: Cozinheiro (vertical e colado ao comando) -->
    <rect class="actor post-it" x="355" y="0" width="35" height="70" />
    <text class="post-it-text" transform="translate(372, 40) rotate(-90)">Cozinheiro</text>

    <!-- Evento: PreparacaoIniciada -->
    <rect class="event post-it" x="730" y="0" width="100" height="70" />
    <text class="post-it-text" x="780" y="30">Preparação</text>
    <text class="post-it-text" x="780" y="50">Iniciada</text>

    <!-- Política: QuandoPreparacaoIniciadaEntãoIniciarTempoDeEspera -->
    <rect class="policy post-it" x="900" y="0" width="100" height="70" />
    <text class="post-it-text" x="950" y="20">Quando Preparação</text>
    <text class="post-it-text" x="950" y="35">Iniciada Então</text>
    <text class="post-it-text" x="950" y="50">Iniciar Tempo</text>
    <text class="post-it-text" x="950" y="65">De Espera</text>

    <!-- Setas conectando os elementos -->
    <line class="arrow" x1="490" y1="35" x2="560" y2="35" />
    <line class="arrow" x1="595" y1="35" x2="730" y2="35" />
    <line class="arrow" x1="830" y1="35" x2="900" y2="35" />
  </g>

  <!-- Fluxo 2 -->
  <g transform="translate(-40, 150)">
    <!-- Comando: IniciarTempoDeEspera -->
    <rect class="command post-it" x="390" y="0" width="100" height="70" />
    <text class="post-it-text" x="440" y="30">Iniciar Contagem</text>
    <text class="post-it-text" x="440" y="50">Regressiva</text>

    <!-- Evento: TempoDeEsperaIniciado -->
    <rect class="event post-it" x="730" y="0" width="100" height="70" />
    <text class="post-it-text" x="780" y="30">Contagem</text>
    <text class="post-it-text" x="780" y="50">Regressiva Iniciada</text>

    <!-- Setas conectando os elementos -->
    <line class="arrow" x1="490" y1="35" x2="560" y2="35" />
    <line class="arrow" x1="595" y1="35" x2="730" y2="35" />
  </g>

  <!-- Seta curva do Fluxo 2 para o Fluxo 3 -->
  <path class="curve-arrow" d="M 740,211 C 780,230 110,230 135,250" />

  <!-- Fluxo 3 -->
  <g transform="translate(-40, 250)">
    <!-- Read Model: ListaDeProdutosDoPedido -->
    <rect class="read-model post-it" x="175" y="0" width="100" height="70" />
    <text class="post-it-text" x="225" y="25">Lista De</text>
    <text class="post-it-text" x="225" y="40">Produtos</text>
    <text class="post-it-text" x="225" y="55">Do Pedido</text>

    <!-- Seta do Read Model para o Comando -->
    <line class="arrow" x1="275" y1="35" x2="355" y2="35" />

    <!-- Comando: PrepararProduto -->
    <rect class="command post-it" x="390" y="0" width="100" height="70" />
    <text class="post-it-text" x="440" y="30">Preparar</text>
    <text class="post-it-text" x="440" y="50">Produto</text>

    <!-- Ator: Cozinheiro (vertical e colado ao comando) -->
    <rect class="actor post-it" x="355" y="0" width="35" height="70" />
    <text class="post-it-text" transform="translate(372, 40) rotate(-90)">Cozinheiro</text>

    <!-- Agregado: Produto -->
    <rect class="aggregate post-it" x="560" y="0" width="100" height="70" />
    <text class="post-it-text" x="610" y="40">Produto</text>

    <!-- Evento: ProdutoPronto -->
    <rect class="event post-it" x="730" y="0" width="100" height="70" />
    <text class="post-it-text" x="780" y="30">Produto</text>
    <text class="post-it-text" x="780" y="50">Pronto</text>

    <!-- Política: QuandoProdutoProntoEntãoAtualizarTempoDeEspera -->
    <rect class="policy post-it" x="900" y="0" width="100" height="70" />
    <text class="post-it-text" x="950" y="20">Quando Produto</text>
    <text class="post-it-text" x="950" y="35">Pronto Então</text>
    <text class="post-it-text" x="950" y="50">Atualizar Contagem</text>
    <text class="post-it-text" x="950" y="65">Regressiva</text>

    <!-- Setas conectando os elementos -->
    <line class="arrow" x1="490" y1="35" x2="560" y2="35" />
    <line class="arrow" x1="660" y1="35" x2="730" y2="35" />
    <line class="arrow" x1="830" y1="35" x2="900" y2="35" />
  </g>

  <!-- Linha divisória após TodosProdutosProntos (atrás do agregado) -->
  <line x1="50" y1="535" x2="520" y2="535" stroke="#000000" stroke-width="1.5" />
  <line x1="555" y1="535" x2="950" y2="535" stroke="#000000" stroke-width="1.5" />

  <!-- Seta curva do Fluxo 3 para o Fluxo 4 (atrás do agregado) -->
  <path class="curve-arrow" d="M 910,311 C 930,330 310,330 350,350" />

  <!-- Seta curva do Fluxo 4 para o Fluxo 5 (atrás do agregado) -->
  <path class="curve-arrow" d="M 740,411 C 780,430 110,430 135,450" />

  <!-- Seta curva do Fluxo 5 para o Fluxo 6 (atrás do agregado) -->
  <path class="curve-arrow" d="M 910,511 C 930,530 310,530 350,550" />

  <!-- Seta curva do Fluxo 6 para o Fluxo 7 (atrás do agregado) -->
  <path class="curve-arrow" d="M 740,611 C 780,630 110,630 135,650" />

  <!-- Seta curva do Fluxo 7 para o Fluxo 8 (atrás do agregado) -->
  <path class="curve-arrow" d="M 910,711 C 930,730 310,730 350,750" />

  <!-- Agregado: Pedido (vertical para fluxos 4-8) -->
  <g transform="translate(-40, 350)">
    <rect class="aggregate post-it" x="560" y="0" width="35" height="470" />
    <text class="post-it-text" transform="translate(577, 235) rotate(-90)">Pedido</text>
  </g>

  <!-- Fluxo 4 -->
  <g transform="translate(-40, 350)">
    <!-- Comando: AtualizarTempoDeEspera -->
    <rect class="command post-it" x="390" y="0" width="100" height="70" />
    <text class="post-it-text" x="440" y="30">Atualizar Contagem</text>
    <text class="post-it-text" x="440" y="50">Regressiva</text>

    <!-- Evento: TempoDeEsperaAtualizado -->
    <rect class="event post-it" x="730" y="0" width="100" height="70" />
    <text class="post-it-text" x="780" y="30">Contagem</text>
    <text class="post-it-text" x="780" y="50">Regressiva Atualizada</text>

    <!-- Setas conectando os elementos -->
    <line class="arrow" x1="490" y1="35" x2="560" y2="35" />
    <line class="arrow" x1="595" y1="35" x2="730" y2="35" />
  </g>

  <!-- Fluxo 5 -->
  <g transform="translate(-40, 450)">
    <!-- Read Model: StatusProdutosDoPedido -->
    <rect class="read-model post-it" x="175" y="0" width="100" height="70" />
    <text class="post-it-text" x="225" y="25">Status</text>
    <text class="post-it-text" x="225" y="40">Produtos</text>
    <text class="post-it-text" x="225" y="55">Do Pedido</text>

    <!-- Seta do Read Model para o Comando -->
    <line class="arrow" x1="275" y1="35" x2="390" y2="35" />

    <!-- Comando: VerificarTodosProdutos -->
    <rect class="command post-it" x="390" y="0" width="100" height="70" />
    <text class="post-it-text" x="440" y="30">Verificar Todos</text>
    <text class="post-it-text" x="440" y="50">Produtos</text>

    <!-- Evento: TodosProdutosProntos -->
    <rect class="event post-it" x="730" y="0" width="100" height="70" />
    <text class="post-it-text" x="780" y="30">Todos Produtos</text>
    <text class="post-it-text" x="780" y="50">Prontos</text>

    <!-- Política: QuandoTodosProdutosProntosEntãoNotificarCliente -->
    <rect class="policy post-it" x="900" y="0" width="100" height="70" />
    <text class="post-it-text" x="950" y="20">Quando Todos</text>
    <text class="post-it-text" x="950" y="35">Produtos Prontos</text>
    <text class="post-it-text" x="950" y="50">Então Notificar</text>
    <text class="post-it-text" x="950" y="65">Cliente</text>

    <!-- Setas conectando os elementos -->
    <line class="arrow" x1="490" y1="35" x2="560" y2="35" />
    <line class="arrow" x1="595" y1="35" x2="730" y2="35" />
    <line class="arrow" x1="830" y1="35" x2="900" y2="35" />
  </g>

  <!-- Fluxo 6 -->
  <g transform="translate(-40, 550)">
    <!-- Comando: EnviarNotificação -->
    <rect class="command post-it" x="390" y="0" width="100" height="70" />
    <text class="post-it-text" x="440" y="30">Enviar</text>
    <text class="post-it-text" x="440" y="50">Notificação</text>

    <!-- Evento: NotificaçãoEnviada -->
    <rect class="event post-it" x="730" y="0" width="100" height="70" />
    <text class="post-it-text" x="780" y="30">Notificação</text>
    <text class="post-it-text" x="780" y="50">Enviada</text>

    <!-- Setas conectando os elementos -->
    <line class="arrow" x1="490" y1="35" x2="560" y2="35" />
    <line class="arrow" x1="595" y1="35" x2="730" y2="35" />
  </g>

  <!-- Linha divisória após PedidoRetirado (atrás do agregado) -->
  <line x1="50" y1="735" x2="520" y2="735" stroke="#000000" stroke-width="1.5" />
  <line x1="555" y1="735" x2="950" y2="735" stroke="#000000" stroke-width="1.5" />

  <!-- Fluxo 7 -->
  <g transform="translate(60, 650)">
    <!-- Read Model: PedidosProntosParaRetirada -->
    <rect class="read-model post-it" x="75" y="0" width="100" height="70" />
    <text class="post-it-text" x="125" y="25">Pedidos Prontos</text>
    <text class="post-it-text" x="125" y="40">Para</text>
    <text class="post-it-text" x="125" y="55">Retirada</text>

    <!-- Seta do Read Model para o Comando -->
    <line class="arrow" x1="175" y1="35" x2="255" y2="35" />

    <!-- Comando: RetirarPedido -->
    <rect class="command post-it" x="290" y="0" width="100" height="70" />
    <text class="post-it-text" x="340" y="30">Retirar</text>
    <text class="post-it-text" x="340" y="50">Pedido</text>

    <!-- Ator: Cliente (vertical e colado ao comando) -->
    <rect class="actor post-it" x="255" y="0" width="35" height="70" />
    <text class="post-it-text" transform="translate(272, 40) rotate(-90)">Cliente</text>

    <!-- Evento: PedidoRetirado -->
    <rect class="event post-it" x="630" y="0" width="100" height="70" />
    <text class="post-it-text" x="680" y="30">Pedido</text>
    <text class="post-it-text" x="680" y="50">Retirado</text>

    <!-- Política: QuandoPedidoRetiradoEntãoFinalizarPedido -->
    <rect class="policy post-it" x="800" y="0" width="100" height="70" />
    <text class="post-it-text" x="850" y="20">Quando Pedido</text>
    <text class="post-it-text" x="850" y="35">Retirado Então</text>
    <text class="post-it-text" x="850" y="50">Finalizar</text>
    <text class="post-it-text" x="850" y="65">Pedido</text>

    <!-- Setas conectando os elementos -->
    <line class="arrow" x1="390" y1="35" x2="460" y2="35" />
    <line class="arrow" x1="495" y1="35" x2="630" y2="35" />
    <line class="arrow" x1="730" y1="35" x2="800" y2="35" />
  </g>

  <!-- Fluxo 8 -->
  <g transform="translate(-40, 750)">
    <!-- Comando: FinalizarPedido -->
    <rect class="command post-it" x="390" y="0" width="100" height="70" />
    <text class="post-it-text" x="440" y="30">Finalizar</text>
    <text class="post-it-text" x="440" y="50">Pedido</text>

    <!-- Evento: PedidoFinalizado -->
    <rect class="event post-it" x="730" y="0" width="100" height="70" />
    <text class="post-it-text" x="780" y="30">Pedido</text>
    <text class="post-it-text" x="780" y="50">Finalizado</text>

    <!-- Setas conectando os elementos -->
    <line class="arrow" x1="490" y1="35" x2="560" y2="35" />
    <line class="arrow" x1="595" y1="35" x2="730" y2="35" />
  </g>
</svg>